<svg id="visual" viewBox="0 0 900 600" width="900" height="600" xmlns="http://www.w3.org/2000/svg" xmlns:xlink="http://www.w3.org/1999/xlink" version="1.1"><path d="M0 374L37.5 367.8C75 361.7 150 349.3 225 369C300 388.7 375 440.3 450 459.2C525 478 600 464 675 437.2C750 410.3 825 370.7 862.5 350.8L900 331L900 601L862.5 601C825 601 750 601 675 601C600 601 525 601 450 601C375 601 300 601 225 601C150 601 75 601 37.5 601L0 601Z" fill="#191919" stroke-linecap="round" stroke-linejoin="miter"></path></svg>