<svg id="visual" viewBox="0 0 900 600" width="auto" height="600" xmlns="http://www.w3.org/2000/svg" xmlns:xlink="http://www.w3.org/1999/xlink" version="1.1"><path d="M0 481L25 477.8C50 474.7 100 468.3 150 445.3C200 422.3 250 382.7 300 382.7C350 382.7 400 422.3 450 450.7C500 479 550 496 600 475.3C650 454.7 700 396.3 750 372.8C800 349.3 850 360.7 875 366.3L900 372L900 601L875 601C850 601 800 601 750 601C700 601 650 601 600 601C550 601 500 601 450 601C400 601 350 601 300 601C250 601 200 601 150 601C100 601 50 601 25 601L0 601Z" fill="#0e0d0c" stroke-linecap="round" stroke-linejoin="miter"></path></svg>