<svg id="visual" viewBox="0 0 960 540" width="960" height="540" xmlns="http://www.w3.org/2000/svg" xmlns:xlink="http://www.w3.org/1999/xlink" version="1.1"><path d="M0 166L22.8 142.3C45.7 118.7 91.3 71.3 137 52C182.7 32.7 228.3 41.3 274 56.5C319.7 71.7 365.3 93.3 411.2 113C457 132.7 503 150.3 548.8 159.2C594.7 168 640.3 168 686 155.3C731.7 142.7 777.3 117.3 823 120.8C868.7 124.3 914.3 156.7 937.2 172.8L960 189L960 0L937.2 0C914.3 0 868.7 0 823 0C777.3 0 731.7 0 686 0C640.3 0 594.7 0 548.8 0C503 0 457 0 411.2 0C365.3 0 319.7 0 274 0C228.3 0 182.7 0 137 0C91.3 0 45.7 0 22.8 0L0 0Z" fill="#191919" stroke-linecap="round" stroke-linejoin="miter"></path></svg>